# xmcd
#
# Track frame offsets:
#	150
#	20575
#	52193
#	84396
#	108422
#	159483
#	173483
#	199785
#	216861
#	232318
#	261832
#	284147
#	297235
#
# Disc length: 4433 seconds
#
# Revision: 0
# Processed by: cddbd v1.5.2PL0 Copyright (c) Steve Scherf et al.
# Submitted via: audiograbber 1.83.01
#
DISCID=c6114f0d
DTITLE=George Thorogood and The Destroyers - Taking Care Of Business [CD 2) - 30t
DTITLE=h Anniversary Tour: Live
DYEAR=2007
DGENRE=BluesRock
TTITLE0=Long Gone [live]
TTITLE1=Who Do You Love [live]
TTITLE2=Night Time [live]
TTITLE3=I Drink Alone [live]
TTITLE4=One Bourbon, One Scotch, One Beer [live]
TTITLE5=Don't Let The Bossman Get You Down [live]
TTITLE6=The Sky Is Crying [live]
TTITLE7=Sweet Little Lady [live]
TTITLE8=Greedy Man [live]
TTITLE9=Bad To The Bone [live]
TTITLE10=The Fixer [live]
TTITLE11=That's It I Quit [live]
TTITLE12=Rockin' My Life Away [live]
EXTD=
EXTT0=
EXTT1=
EXTT2=
EXTT3=
EXTT4=
EXTT5=
EXTT6=
EXTT7=
EXTT8=
EXTT9=
EXTT10=
EXTT11=
EXTT12=
PLAYORDER=
